<svg version="1.1" xmlns="http://www.w3.org/2000/svg" viewBox="0 0 166.76987912999584 166.76987912999584" width="166.76987912999584" height="166.76987912999584">
  <metadata></metadata>
  <defs>
    <style class="style-fonts"></style>
    <clipPath id="corte-ojo-izq">
      <rect x="-10" y="3.5" width="40" height="20" />
    </clipPath>
    
    <clipPath id="corte-ojo-der">
      <rect x="-10" y="3.9" width="40" height="20" />
    </clipPath>
  </defs>

  <g transform="translate(17.54499029402382, 0)">
    
    <g stroke-linecap="round">
      <g transform="translate(32.65471133709798 84.7499702849218) rotate(0 41.5274153419432 2.512355050865608)">
        <path d="M-0.88 0.48 C-0.84 -8.64, -13.13 -46.36, 0.4 -55.59 C13.93 -64.82, 66.88 -74.57, 80.32 -54.91 C93.77 -35.25, 83.97 42.88, 81.06 62.37 C78.15 81.86, 66.1 62.04, 62.86 62.01 M0.87 -0.31 C0.8 -9.14, -13.78 -44.55, -0.15 -53.97 C13.47 -63.38, 69.07 -76.38, 82.62 -56.81 C96.16 -37.24, 84.57 43.61, 81.1 63.44 C77.62 83.27, 64.81 62.57, 61.76 62.17" stroke="#4a412a" stroke-width="4" fill="none"></path>
      </g>
    </g>

    <g stroke-linecap="round">
      <g transform="translate(47.49009483413829 20.005200432986385) rotate(0.46407037829917736 23.742837771937047 -4.563303479900469)" fill-rule="evenodd">
        <path d="M1.09 -1.42 C2.3 -2.73, 3.33 -7.77, 7.63 -9.05 C11.93 -10.33, 22.28 -8.96, 26.88 -9.12 C31.48 -9.28, 32.24 -11.41, 35.23 -10 C38.22 -8.59, 50.58 -2.51, 44.8 -0.66 C39.03 1.19, 8.1 0.92, 0.58 1.11" stroke="none" stroke-width="0" fill="#4a412a" fill-rule="evenodd"></path>
        <path d="M0.34 0.07 C1.84 -1.42, 4.11 -7.17, 8.56 -8.71 C13.02 -10.24, 22.4 -9.02, 27.09 -9.12 C31.77 -9.22, 33.66 -10.79, 36.68 -9.29 C39.71 -7.79, 51.27 -1.75, 45.22 -0.11 C39.18 1.53, 8.03 0.46, 0.43 0.54 M-0.14 -0.37 C1.54 -2.03, 5.06 -8.11, 9.53 -9.48 C13.99 -10.84, 22.07 -8.64, 26.64 -8.54 C31.21 -8.44, 33.72 -10.31, 36.96 -8.89 C40.2 -7.46, 52.32 -1.53, 46.1 0.01 C39.88 1.55, 7.36 0.36, -0.37 0.34" stroke="#4a412a" stroke-width="4" fill="none"></path>
      </g>
    </g>

    <g stroke-linecap="round">
      <g transform="translate(37.767624321488256 112.55555567497686) rotate(0 9.693452407902441 4.745083677990806)">
        <path d="M-1.15 0.84 C-4.41 3.08, -15.34 8.05, -18.85 13.61 C-22.37 19.17, -33.18 30.82, -22.25 34.2 C-11.32 37.59, 42.18 42.54, 46.75 33.93 C51.32 25.32, 15.76 -6.84, 5.16 -17.47 C-5.44 -28.09, -13.37 -27.51, -16.87 -29.83 M0.45 0.23 C-3.08 2.66, -16.16 9.27, -20.01 15.11 C-23.86 20.96, -33.77 32, -22.65 35.29 C-11.53 38.59, 42.26 44.14, 46.73 34.9 C51.21 25.67, 14.62 -9.22, 4.19 -20.12 C-6.24 -31.02, -12.64 -28.92, -15.85 -30.49" stroke="#4a412a" stroke-width="4" fill="none"></path>
      </g>
    </g>

    <g stroke-linecap="round" transform="translate(55.57655517368403 61.57798763411665) rotate(0 5.193153791637087 5.1931537916373145)" clip-path="url(#corte-ojo-izq)">
      <path d="M5.58 -0.02 C6.68 -0.05, 7.78 0.52, 8.54 1.31 C9.31 2.1, 9.96 3.63, 10.19 4.72 C10.42 5.8, 10.38 6.9, 9.91 7.81 C9.43 8.73, 8.42 9.74, 7.33 10.18 C6.23 10.63, 4.45 10.96, 3.34 10.48 C2.23 10.01, 1.19 8.3, 0.67 7.32 C0.16 6.33, 0.06 5.57, 0.24 4.56 C0.42 3.54, 0.82 1.97, 1.74 1.2 C2.66 0.43, 5.11 0.19, 5.76 -0.05 C6.41 -0.28, 5.75 -0.34, 5.62 -0.2 M5.26 -0.33 C6.35 -0.6, 7.13 -0.19, 8.03 0.46 C8.93 1.11, 10.42 2.34, 10.66 3.56 C10.9 4.79, 10.02 6.61, 9.47 7.79 C8.91 8.97, 8.3 10.14, 7.34 10.65 C6.37 11.16, 4.84 11.36, 3.66 10.84 C2.48 10.32, 0.93 8.49, 0.28 7.55 C-0.38 6.61, -0.58 6.25, -0.28 5.2 C0.03 4.15, 1.15 2.02, 2.11 1.27 C3.07 0.52, 5.04 0.98, 5.47 0.71 C5.91 0.44, 4.87 -0.46, 4.72 -0.37" stroke="none" stroke-width="0" fill="#4a412a"></path>
      <path d="M5.84 0.45 C7.01 0.52, 8.75 0.64, 9.56 1.43 C10.37 2.21, 10.8 3.93, 10.69 5.15 C10.58 6.37, 9.73 7.97, 8.91 8.75 C8.1 9.53, 6.84 9.68, 5.81 9.83 C4.78 9.98, 3.65 10.16, 2.74 9.64 C1.83 9.13, 0.82 7.81, 0.36 6.76 C-0.1 5.72, -0.33 4.33, -0.01 3.36 C0.3 2.39, 1.19 1.51, 2.27 0.95 C3.34 0.39, 5.77 0.15, 6.46 -0.01 C7.15 -0.18, 6.51 -0.22, 6.41 -0.06 M6.13 -0.6 C7.35 -0.65, 8.45 -0.11, 9.21 0.64 C9.97 1.4, 10.68 2.74, 10.69 3.91 C10.7 5.08, 10 6.63, 9.26 7.66 C8.52 8.69, 7.29 9.68, 6.26 10.1 C5.22 10.51, 3.94 10.47, 3.04 10.16 C2.14 9.85, 1.27 9.37, 0.87 8.24 C0.47 7.12, 0.57 4.68, 0.65 3.39 C0.74 2.11, 0.66 1.19, 1.4 0.52 C2.14 -0.14, 4.44 -0.6, 5.1 -0.62 C5.77 -0.64, 5.45 0.14, 5.39 0.39" stroke="#4a412a" stroke-width="4" fill="none"></path>
    </g>
    
    <g stroke-linecap="round" transform="translate(54.848980354763626 58.2893503077139) rotate(0 5.860097375645637 4.240895559020373)" clip-path="url(#corte-ojo-izq)">
         <path d="M2.12 0 C4.02 0.57, 6.83 -0.45, 9.6 0 C11.98 0.26, 14.12 0.51, 11.72 2.12 C11.45 4.21, 12.04 5.31, 11.72 6.36 C13.77 10.2, 10.43 6.8, 9.6 8.48 C8.56 7.92, 5.33 8.5, 2.12 8.48 C3.3 7.49, -0.67 5.33, 0 6.36 C0.03 4.52, 0.47 3.23, 0 2.12 C-1.61 0.45, 2.06 -0.57, 2.12 0" stroke="none" stroke-width="0" fill="#4a412a"></path>
         <path d="M2.12 0 C3.98 -0.18, 6.02 0.27, 9.6 0 M2.12 0 C5.14 -0.15, 8.19 -0.18, 9.6 0 M9.6 0 C10.12 0.03, 11.48 0.69, 11.72 2.12 M9.6 0 C10.22 -0.64, 11.26 0.25, 11.72 2.12 M11.72 2.12 C11.79 3.42, 11.67 5.1, 11.72 6.36 M11.72 2.12 C11.81 3.37, 11.78 4.69, 11.72 6.36 M11.72 6.36 C12.19 7.01, 10.57 8.09, 9.6 8.48 M11.72 6.36 C10.91 7.71, 10.71 8.72, 9.6 8.48 M9.6 8.48 C6.74 8.21, 4.3 8.37, 2.12 8.48 M9.6 8.48 C7.83 8.58, 6.29 8.36, 2.12 8.48 M2.12 8.48 C0.69 8.02, -0.31 8.61, 0 6.36 M2.12 8.48 C0.65 8.56, 0.25 7.51, 0 6.36 M0 6.36 C0.13 4.76, -0.05 3.22, 0 2.12 M0 6.36 C0.07 5.1, 0.01 3.98, 0 2.12 M0 2.12 C-0.09 1.15, 0.1 -0.57, 2.12 0 M0 2.12 C0.63 0.43, 0.02 0.42, 2.12 0" stroke="#4a412a" stroke-width="4" fill="none"></path>
    </g>

    <g stroke-linecap="round" transform="translate(81.91711757115263 61.57798814978014) rotate(0 5.193153791637087 5.1931537916373145)" clip-path="url(#corte-ojo-der)">
      <path d="M5.02 0.45 C6.1 0.36, 7.75 0.58, 8.69 1.23 C9.62 1.87, 10.47 3.2, 10.63 4.35 C10.78 5.5, 10.23 7.27, 9.62 8.14 C9.01 9.01, 7.98 9.19, 6.99 9.56 C5.99 9.92, 4.7 10.62, 3.64 10.33 C2.58 10.04, 1.15 8.81, 0.64 7.81 C0.12 6.8, 0.31 5.45, 0.55 4.3 C0.78 3.16, 1.27 1.62, 2.03 0.95 C2.79 0.28, 4.52 0.47, 5.11 0.28 C5.69 0.09, 5.45 -0.26, 5.52 -0.17 M5.02 -0.39 C6.04 -0.43, 6.81 0.34, 7.68 1.14 C8.56 1.94, 9.88 3.28, 10.25 4.41 C10.62 5.54, 10.45 7.11, 9.9 7.93 C9.35 8.75, 7.97 8.84, 6.93 9.33 C5.89 9.81, 4.57 11.04, 3.67 10.84 C2.77 10.64, 2.02 9.01, 1.51 8.13 C1 7.25, 0.64 6.74, 0.6 5.58 C0.56 4.41, 0.65 1.94, 1.26 1.13 C1.86 0.33, 3.59 0.83, 4.23 0.77 C4.87 0.71, 5.11 0.88, 5.1 0.78" stroke="none" stroke-width="0" fill="#4a412a"></path>
      <path d="M6.51 0.21 C7.42 0.46, 8.32 1.5, 8.89 2.28 C9.47 3.05, 9.92 3.83, 9.95 4.86 C9.99 5.9, 9.77 7.65, 9.11 8.5 C8.44 9.35, 7.12 9.82, 5.97 9.98 C4.82 10.14, 3.2 9.92, 2.22 9.43 C1.24 8.94, 0.33 8.07, 0.07 7.04 C-0.18 6, 0.23 4.32, 0.69 3.21 C1.15 2.1, 1.92 0.81, 2.84 0.35 C3.76 -0.11, 5.58 0.51, 6.2 0.45 C6.83 0.38, 6.62 -0.15, 6.57 -0.04 M4.5 -0.47 C5.38 -0.68, 6.5 -0.29, 7.33 0.33 C8.17 0.95, 9.06 2.14, 9.49 3.25 C9.92 4.36, 10.14 5.83, 9.92 6.99 C9.7 8.16, 9 9.8, 8.17 10.24 C7.35 10.68, 6.21 9.98, 4.97 9.62 C3.72 9.26, 1.58 8.88, 0.7 8.07 C-0.17 7.25, -0.35 5.68, -0.28 4.71 C-0.21 3.74, 0.5 2.96, 1.14 2.24 C1.78 1.53, 3.11 0.86, 3.58 0.43 C4.05 0, 3.82 -0.31, 3.93 -0.33" stroke="#4a412a" stroke-width="4" fill="none"></path>
    </g>
    
    <g stroke-linecap="round">
      <g transform="translate(84.03952716574713 46.74155705289377) rotate(0 8.689615399785907 3.2426839061031387)">
        <path d="M-0.35 0.33 C1.21 0.52, 6.74 0.71, 9.75 1.67 C12.76 2.64, 16.54 5.28, 17.73 6.1 M0.48 0.03 C1.93 0.51, 6.53 1.1, 9.38 2.17 C12.23 3.25, 16.34 5.63, 17.56 6.46" stroke="#4a412a" stroke-width="4" fill="none"></path>
      </g>
    </g>
    <mask></mask>
    <g stroke-linecap="round">
      <g transform="translate(46.85373147050268 53.318831705701086) rotate(0 9.139280598072219 -4.757756270682876)">
        <path d="M0.12 -0.39 C1.76 -2.04, 6.53 -8.12, 9.46 -9.57 C12.38 -11.02, 16.26 -9.15, 17.69 -9.08 M-0.48 0.6 C1.15 -1.02, 6.01 -7.6, 9.21 -9.11 C12.42 -10.62, 17.27 -8.56, 18.75 -8.47" stroke="#4a412a" stroke-width="4" fill="none"></path>
      </g>
    </g>
    <mask></mask>
  </g>
</svg>